<svg xmlns="http://www.w3.org/2000/svg" viewBox="0 0 39.11 41"><defs><style>.cls-1{opacity:0.5;}.cls-2,.cls-3{fill:none;stroke:#4c4c4c;stroke-linecap:round;}.cls-2{stroke-miterlimit:10;}.cls-3{stroke-linejoin:round;}</style></defs><g id="Layer_2" data-name="Layer 2"><g id="Layer_1-2" data-name="Layer 1"><g class="cls-1"><line class="cls-2" x1="28.16" y1="13.48" x2="28.16" y2="8.54"/><path class="cls-2" d="M28.16,29.22v9.84a1.44,1.44,0,0,1-1.44,1.44H1.94A1.45,1.45,0,0,1,.5,39.06V1.94A1.45,1.45,0,0,1,1.94.5H20.13"/><path class="cls-3" d="M23.66,30,17.72,31.8l1.76-5.94L34.25,11.09a.71.71,0,0,1,1,.05l3.11,3.11a.71.71,0,0,1,.05,1Z"/><line class="cls-3" x1="19.48" y1="25.86" x2="23.66" y2="30.03"/><line class="cls-3" x1="31.52" y1="13.82" x2="35.69" y2="17.99"/><path class="cls-3" d="M28.16,8.54H21.57a1.44,1.44,0,0,1-1.44-1.45V.5Z"/><line class="cls-3" x1="5" y1="13.46" x2="16.34" y2="13.46"/><line class="cls-3" x1="5" y1="18.02" x2="22.4" y2="18.02"/><line class="cls-3" x1="5" y1="22.59" x2="17.96" y2="22.59"/><line class="cls-3" x1="5" y1="27.15" x2="16.34" y2="27.15"/><line class="cls-3" x1="5" y1="31.72" x2="14.9" y2="31.72"/></g></g></g></svg>