<svg xmlns="http://www.w3.org/2000/svg" width="68.6" height="67.09" viewBox="0 0 68.6 67.09"><defs><style>.cls-1{isolation:isolate;}.cls-2{fill:#999;}.cls-2,.cls-3,.cls-4,.cls-5{fill-rule:evenodd;}.cls-3{fill:#f6f6fa;stroke:#bfbfbf;stroke-miterlimit:10;}.cls-4{fill:#dce0e8;mix-blend-mode:multiply;opacity:0.6;}.cls-5{fill:#e3e5e8;}</style></defs><g class="cls-1"><g id="Layer_2" data-name="Layer 2"><g id="Desktop"><g id="page_02"><g id="Graphics"><path class="cls-2" d="M9.41,53.68q2,0,2.37-.66a5.44,5.44,0,0,1-2.37.66Z"/><path class="cls-3" d="M60.33.81q3.53,5.13.94,12.27a82.62,82.62,0,0,0-2.52,20.29q-.26,16.4-1.92,19a35.44,35.44,0,0,1,2.22,3.31c1.11,1.15,1.6,2.16,1.44,3a22.76,22.76,0,0,0,2.92,5.51,8.85,8.85,0,0,0,4,1c.87.64.9,1,.11,1.2q-5.78-.2-10.89.12-34.44-.15-48.56,0a5.27,5.27,0,0,0-2.55-1q-8.25-.41-3-3L5.84,62a3.57,3.57,0,0,1,1.08-2.36,18.24,18.24,0,0,1,1.36-4,31.49,31.49,0,0,1,2.82-2.92c-2-2.51-2.92-4.67-2.76-6.46-.22-1.39-.45-2.57-.69-3.52q-1.85-22-3.12-26.5L3.47,2.06q14.64.07,18,.66Q46,6.28,57.2,2.89A13.13,13.13,0,0,0,60.33.81Z"/><path class="cls-4" d="M60.33.81a11.31,11.31,0,0,1,1.24,2.32Q50.62,8.55,28.68,5,20.91,3.88,3.55,3.16l-.08-1.1q14.64.07,18,.66Q46,6.28,57.2,2.89A13.13,13.13,0,0,0,60.33.81Z"/><path class="cls-5" d="M59.68,66.43c-1,0-2,.08-3,.14q-28.7-.12-43.29,0c9.26-4.42,3-1,15.71-1.46,8.22,0,.75-2,11.34-.06,9.79-1.68,12.21,2.58,13.92-.19,2.89,2.43,3.47.74,5.36,1.6Z"/><path class="cls-5" d="M59.68,21a83.51,83.51,0,0,0-.93,12.4q-.26,16.4-1.92,19a35.44,35.44,0,0,1,2.22,3.31c1.11,1.15,1.6,2.16,1.44,3a22.76,22.76,0,0,0,2.92,5.51,8.85,8.85,0,0,0,4,1c.87.64.9,1,.11,1.2l-1.18,0a7.21,7.21,0,0,0-3.47-1.87c-.76-2.62-2-3.77-3.69-3.48a6.73,6.73,0,0,0-.38-4.81l-1.68,1.36c.55-1.43.5-2.39-.14-2.91a18,18,0,0,0-2.65,1.81c1.86-2.68,2.12-3.72.81-3.12s-1.67-.3-1.07-2.27q4.2-3.15,1-3.66a36.76,36.76,0,0,1-5.3,7.2,81.07,81.07,0,0,0,4-12.51q2.77-6.18.59-10.09Q56.11,30.77,59.68,21Z"/><path class="cls-5" d="M7,59.53a17.29,17.29,0,0,1,1.32-3.82,31.49,31.49,0,0,1,2.82-2.92c-2-2.51-2.92-4.67-2.76-6.46-.22-1.39-.45-2.57-.69-3.52Q6,23.37,4.84,17.6a58.51,58.51,0,0,1,2.78,9q.94,5.55,5.57,14.53,2.67,4.06,2.78,11a4.57,4.57,0,0,0-2.27-1.42c2,2.31,1.57,3.79-1.35,4.42.41.58.44,1.62.06,3.11a4.16,4.16,0,0,0-2.68-1c1.16,1.14,1.59,2.24,1.28,3.28-1-1-1.75-1.53-2.29-1.55A3,3,0,0,0,7,59.53Z"/><path class="cls-5" d="M6,62a1.24,1.24,0,0,1-.4.2,8.81,8.81,0,0,0,3.26,3.41A15.52,15.52,0,0,1,6,62Z"/><path class="cls-4" d="M14.23,28a20.45,20.45,0,0,0-8-14.66Q9.75,36.86,17.77,45.48A53.4,53.4,0,0,1,14.23,28Z"/><path class="cls-5" d="M55.47,63.29c2-.51,3.21-1.25,3.72-2.23a14.45,14.45,0,0,1-3.72,2.23Z"/><path class="cls-5" d="M59.62,65.45c1.79,0,2.87-.28,3.26-.91a7.34,7.34,0,0,1-3.26.91Z"/><path class="cls-5" d="M12.76,64.58q.71-2.25-2.19-4.56a7.7,7.7,0,0,1,2.19,4.56Z"/></g></g></g></g></g></svg>