<svg xmlns="http://www.w3.org/2000/svg" width="66.26" height="68.34" viewBox="0 0 66.26 68.34"><defs><style>.cls-1{isolation:isolate;}.cls-2{fill:#e4eef3;stroke:#bebebe;stroke-linecap:round;stroke-linejoin:round;stroke-width:1.14px;opacity:0.5;}.cls-3{fill:#e1ebc4;}.cls-3,.cls-7{opacity:0.8;}.cls-4{fill:#c3ccd1;mix-blend-mode:multiply;opacity:0.4;}.cls-5{fill:#fff;opacity:0.7;}.cls-5,.cls-7{mix-blend-mode:overlay;}.cls-6{fill:none;}</style></defs><g class="cls-1"><g id="Layer_2" data-name="Layer 2"><g id="Desktop"><g id="page_02"><g id="Graphics"><path class="cls-2" d="M65.68,2C65.68.41,61.57.57,61.57.57H6.16s-4-.09-4.95.81a1.66,1.66,0,0,0,.1,2.7,7.51,7.51,0,0,1,3.63,6.3V58.92s-.57,8.85,7.25,8.85h45c7.82,0,7.25-8.85,7.25-8.85V10.38s.1-5.3,0-6.14a1.06,1.06,0,0,1,.73-1.08A1.26,1.26,0,0,0,65.68,2Z"/><path class="cls-3" d="M63.61,28.46H5.75V58.09s-.55,8.6,7.06,8.6H56.56c7.6,0,7-8.6,7-8.6Z"/><path class="cls-4" d="M65.68,2C65.68.41,61.57.57,61.57.57H6.16s-4-.09-4.95.81a1.66,1.66,0,0,0,.1,2.7,7.51,7.51,0,0,1,3.63,6.3V58.92s-.57,8.85,7.25,8.85h45c7.82,0,7.25-8.85,7.25-8.85V10.38s.1-5.3,0-6.14a1.06,1.06,0,0,1,.73-1.08A1.26,1.26,0,0,0,65.68,2ZM56.9,2.3c-.25,1-2.45,1.12-2.45,1.12l-30.06,1H44.51l.27,55c-.82,4.15-5.52,4.25-5.52,4.25H13.55c-6.92,0-7-7.42-7-7.42V10.43C6.38,7.08,5.32,5.17,4,4.13S2.63,2.7,2.63,2.7C2,1.1,4.43,1.18,4.43,1.18H54.86C57.3,1.18,56.9,2.3,56.9,2.3Z"/><path class="cls-5" d="M14.28,2.62H8.74S6.14,2.86,7,4.14c0,0,2.94,2.39,3.26,4.78V55.79s.57,6,5.79,6l3.58-.12V9.08S18.93,3.58,14.28,2.62Z"/><path class="cls-6" d="M6.54,56.26s.09,7.42,7,7.42H39.26s4.7-.1,5.52-4.25l-.27-55H24.39l30.06-1s2.2-.16,2.45-1.12c0,0,.4-1.12-2-1.12H4.43S2,1.1,2.63,2.7c0,0,.08.4,1.39,1.43s2.36,3,2.52,6.3Z"/><g class="cls-7"><path class="cls-5" d="M35,57.86a1.56,1.56,0,1,1-1.56-1.53A1.54,1.54,0,0,1,35,57.86Z"/><path class="cls-5" d="M33.49,54.49a.71.71,0,0,1-.72.7.72.72,0,0,1-.73-.7.72.72,0,0,1,.73-.71A.71.71,0,0,1,33.49,54.49Z"/><path class="cls-5" d="M31.82,63.19a.72.72,0,1,1-.72-.71A.71.71,0,0,1,31.82,63.19Z"/><path class="cls-5" d="M35.77,62.54a1,1,0,1,1-1-1A1,1,0,0,1,35.77,62.54Z"/><path class="cls-5" d="M32.54,38.11a.72.72,0,1,1-.72-.71A.71.71,0,0,1,32.54,38.11Z"/><path class="cls-5" d="M35.88,45.35a1.45,1.45,0,1,1-1.44-1.42A1.43,1.43,0,0,1,35.88,45.35Z"/><path class="cls-5" d="M37.93,31.23a1.45,1.45,0,0,1-2.89,0,1.45,1.45,0,0,1,2.89,0Z"/><path class="cls-5" d="M27.18,36.92a.9.9,0,1,1-.9-.88A.89.89,0,0,1,27.18,36.92Z"/><path class="cls-5" d="M50.17,36.44a.9.9,0,1,1-.9-.89A.89.89,0,0,1,50.17,36.44Z"/><path class="cls-5" d="M41.27,61.25a.92.92,0,1,1-.92-.9A.91.91,0,0,1,41.27,61.25Z"/><path class="cls-5" d="M45.73,47.92a2.19,2.19,0,1,1-2.18-2.14A2.16,2.16,0,0,1,45.73,47.92Z"/><path class="cls-5" d="M28,56.42a1.79,1.79,0,1,1-1.79-1.76A1.77,1.77,0,0,1,28,56.42Z"/></g></g></g></g></g></g></svg>