<svg xmlns="http://www.w3.org/2000/svg" width="30.47" height="62.4" viewBox="0 0 30.47 62.4"><defs><style>.cls-1{fill:#fe7c45;}</style></defs><g id="Layer_2" data-name="Layer 2"><g id="Desktop"><g id="page_02"><g id="Graphics"><path class="cls-1" d="M8.8,61.42c-3.57-.9-6.2-4.08-7.42-7.54S.11,46.69.07,43C0,31.85-.16,20.64,1,9.51a16.26,16.26,0,0,1,1.47-6.1A6,6,0,0,1,7.41,0c2.12,0,4.2,2,3.78,4.05A3,3,0,0,1,13,.79c3.06-1.39,6.67,2.35,5.82,5.58-.44-2.65,3.69-4,5.84-2.4s2.63,4.6,3,7.27c.85,7,1.7,14,2.23,21.07.5,6.84.7,13.71.58,20.57-.06,3.29-.51,7.14-3.36,8.81-2.13,1.25-5,.73-7-.67-3.73-2.56-4.29-7.33-4.29-7.33S12,62.22,8.8,61.42Z"/></g></g></g></g></svg>