<svg xmlns="http://www.w3.org/2000/svg" xmlns:xlink="http://www.w3.org/1999/xlink" width="115.3" height="47.82" viewBox="0 0 115.3 47.82"><defs><style>.cls-1{fill:url(#linear-gradient);}</style><linearGradient id="linear-gradient" x1="55.88" y1="-4.05" x2="58.94" y2="66.42" gradientUnits="userSpaceOnUse"><stop offset="0" stop-color="#e07b36"/><stop offset="0.1" stop-color="#e27736"/><stop offset="0.21" stop-color="#e86935"/><stop offset="0.32" stop-color="#f15334"/><stop offset="0.44" stop-color="#fe3533"/><stop offset="0.45" stop-color="#f33"/><stop offset="0.56" stop-color="#f42f32"/><stop offset="0.75" stop-color="#d52530"/><stop offset="1" stop-color="#a6162c"/></linearGradient></defs><g id="Layer_2" data-name="Layer 2"><g id="Desktop"><g id="page_02"><g id="Graphics"><path class="cls-1" d="M0,36.74c10.41,6.49,32.62,11.08,57.64,11.08s47.26-4.6,57.66-11.09a21,21,0,0,0-6.73-7.41c-2.54-1.8-5-4-7.88-5.31-3.62-1.66-7.44-2.92-10.88-4.86C86,17,82.75,13.94,78.92,11.8,74.94,9.58,71,7,67.13,4.66,63.69,2.59,60.7-1.4,56.28.5c-2,.88-3.69,2.7-5.55,3.89-2.07,1.33-4.36,2.24-6.46,3.51-4.72,2.86-8.21,7.53-13,10.18a168.3,168.3,0,0,0-14.77,9.36C12.76,30,6.68,32,2.75,34.69,1.94,35.25,1,36,0,36.74Z"/></g></g></g></g></svg>