<svg xmlns="http://www.w3.org/2000/svg" width="114.48" height="60.02" viewBox="0 0 114.48 60.02"><defs><style>.cls-1{fill:#ff36ff;}.cls-1,.cls-3,.cls-6{stroke:#900;stroke-miterlimit:10;}.cls-2{fill:#900;}.cls-3{fill:#9962c5;stroke-width:2px;}.cls-4{fill:#e94889;}.cls-5{fill:#e9498a;}.cls-6{fill:#fd35fd;}</style></defs><g id="Layer_2" data-name="Layer 2"><g id="Desktop"><g id="page_02"><g id="Graphics"><path class="cls-1" d="M77.38,5.07l30.09,46.11,6.21-2.92C102.35,34.78,89.35,18.25,78,4.77,77.25,3.85,78.15,6,77.38,5.07Z"/><path class="cls-2" d="M55.65,12.7,97.71,48.33l8.83-8.09c-15.88-8.59-34.1-19.78-50-28.38C55.48,11.28,56.74,13.28,55.65,12.7Z"/><path class="cls-3" d="M89.77,8.75,65,56.85l6.77,1.95C77.4,43.18,84.86,24.57,90.46,9,90.85,7.88,89.38,9.82,89.77,8.75Z"/><path class="cls-4" d="M68.53.28,61.48,49l13.39.24c-2-15.28-3-33.67-5-49C69.77-.74,68.66,1.32,68.53.28Z"/><path class="cls-2" d="M66.35,19.32l-55.49,27,4,4.8c16.07-9.91,35.83-21.35,51.9-31.25C67.86,19.14,65.26,20,66.35,19.32Z"/><path class="cls-3" d="M94.77,43.89l-64.85,1.2.51,5.76c20.07-2.17,44.32-4.19,64.4-6.36C96.2,44.34,93.4,44,94.77,43.89Z"/><path class="cls-4" d="M95.89,24.89,37.42,39.34l5.13,9.93c16.64-7.6,37.22-15.75,53.86-23.36C97.55,25.39,94.75,25.41,95.89,24.89Z"/><path class="cls-2" d="M73.28,31,20.18,1.07,16.33,6c17.77,7.8,38.78,17.71,56.55,25.51C74.1,32,72.07,30.43,73.28,31Z"/><path class="cls-5" d="M55.52,2.4,13.8,38.29l10.61,6.56c9.7-13.24,22.49-28.53,32.2-41.77C57.27,2.17,54.85,3.31,55.52,2.4Z"/><path class="cls-6" d="M60.27,42.41l-56.21-26L.76,21.56c18.57,6.51,40.6,14.87,59.17,21.38C61.2,43.38,59,42,60.27,42.41Z"/><path class="cls-2" d="M73.51,26.63l-59.32-12-2,10.62c19.15.43,42,2,61.15,2.46C74.61,27.75,72.21,26.6,73.51,26.63Z"/></g></g></g></g></svg>