<svg xmlns="http://www.w3.org/2000/svg" xmlns:xlink="http://www.w3.org/1999/xlink" viewBox="0 0 40.15 261.55"><defs><style>.cls-1{fill:url(#linear-gradient);}.cls-2{fill:url(#linear-gradient-2);}.cls-3{fill:url(#linear-gradient-3);}.cls-4{fill:url(#linear-gradient-4);}.cls-5{fill:url(#linear-gradient-5);}.cls-6{fill:url(#linear-gradient-6);}.cls-7{fill:url(#linear-gradient-7);}.cls-8{fill:url(#linear-gradient-8);}.cls-9{fill:#fff;opacity:0.6;}.cls-10{opacity:0.4;fill:url(#linear-gradient-9);}.cls-11{opacity:0.8;fill:url(#linear-gradient-10);}</style><linearGradient id="linear-gradient" x1="205.32" y1="349.84" x2="205.32" y2="375.07" gradientTransform="translate(-359.57 307.31) rotate(-85.54)" gradientUnits="userSpaceOnUse"><stop offset="0" stop-color="#fff"/><stop offset="0.18" stop-color="#ecedec"/><stop offset="0.33" stop-color="#e0e1e0"/><stop offset="0.42" stop-color="#d5d6d5"/><stop offset="0.81" stop-color="#a4a4a4"/><stop offset="1" stop-color="#919191"/></linearGradient><linearGradient id="linear-gradient-2" x1="-79.24" y1="230.22" x2="56.09" y2="184.89" gradientTransform="matrix(0.76, -0.65, 0.65, 0.76, -128.89, -5.8)" gradientUnits="userSpaceOnUse"><stop offset="0" stop-color="#acacac"/><stop offset="0.06" stop-color="#afafaf"/><stop offset="0.66" stop-color="#cccbcb"/><stop offset="1" stop-color="#d7d6d6"/></linearGradient><linearGradient id="linear-gradient-3" x1="35.12" y1="157.93" x2="80.2" y2="222.26" gradientTransform="translate(111.95 -61.01) rotate(45)" gradientUnits="userSpaceOnUse"><stop offset="0" stop-color="#c8c7c6"/><stop offset="0.24" stop-color="#959594"/><stop offset="0.77" stop-color="#2b2b2b"/><stop offset="1" stop-color="#010101"/></linearGradient><linearGradient id="linear-gradient-4" x1="238.8" y1="351.96" x2="238.8" y2="373.12" gradientTransform="translate(-218.36 -265.12)" gradientUnits="userSpaceOnUse"><stop offset="0" stop-color="#fafbfc"/><stop offset="1" stop-color="#d9d9d8"/></linearGradient><linearGradient id="linear-gradient-5" x1="201.69" y1="360.66" x2="201.69" y2="364.42" gradientTransform="translate(-359.57 307.31) rotate(-85.54)" gradientUnits="userSpaceOnUse"><stop offset="0" stop-color="#989898"/><stop offset="0.19" stop-color="#c4c4c4"/><stop offset="0.23" stop-color="#cdcdcd"/><stop offset="0.3" stop-color="#e4e4e4"/><stop offset="0.36" stop-color="#fff"/><stop offset="0.44" stop-color="#fbfbfb"/><stop offset="0.52" stop-color="#f0f0ef"/><stop offset="0.57" stop-color="#e6e6e5"/><stop offset="0.75" stop-color="#b0b1b1"/><stop offset="0.96" stop-color="#fff"/></linearGradient><linearGradient id="linear-gradient-6" x1="232.93" y1="360.66" x2="232.93" y2="364.42" gradientTransform="translate(-359.57 307.31) rotate(-85.54)" gradientUnits="userSpaceOnUse"><stop offset="0" stop-color="#fdc010"/><stop offset="0.05" stop-color="#f8c329"/><stop offset="0.15" stop-color="#ebc968"/><stop offset="0.3" stop-color="#d5d3cd"/><stop offset="0.31" stop-color="#d4d4d4"/><stop offset="0.37" stop-color="#d8d8d8"/><stop offset="0.42" stop-color="#e3e3e3"/><stop offset="0.47" stop-color="#f6f6f6"/><stop offset="0.49" stop-color="#fff"/><stop offset="0.55" stop-color="#fbfbfb"/><stop offset="0.62" stop-color="#f0f0ef"/><stop offset="0.65" stop-color="#e6e6e5"/><stop offset="0.69" stop-color="#ffd041"/><stop offset="0.74" stop-color="#f6c63f"/><stop offset="0.82" stop-color="#deaa38"/><stop offset="0.89" stop-color="#c69032"/></linearGradient><linearGradient id="linear-gradient-7" x1="-70.16" y1="280.97" x2="-47.82" y2="280.97" gradientTransform="matrix(0.76, -0.65, 0.65, 0.76, -128.89, -5.8)" gradientUnits="userSpaceOnUse"><stop offset="0.2" stop-color="#080505"/><stop offset="0.69" stop-color="#050303"/><stop offset="0.8" stop-color="#070505"/><stop offset="0.85" stop-color="#0e0a0a"/><stop offset="0.89" stop-color="#1b1414"/><stop offset="0.92" stop-color="#2d2221"/><stop offset="0.94" stop-color="#443433"/><stop offset="0.97" stop-color="#614a49"/><stop offset="0.99" stop-color="#836362"/><stop offset="1" stop-color="#967271"/></linearGradient><linearGradient id="linear-gradient-8" x1="89.19" y1="359.8" x2="89.19" y2="365.7" gradientTransform="translate(-359.57 307.31) rotate(-85.54)" gradientUnits="userSpaceOnUse"><stop offset="0.11" stop-color="#270f0f"/><stop offset="0.12" stop-color="#442f2f"/><stop offset="0.15" stop-color="#7c6d6d"/><stop offset="0.17" stop-color="#aba1a1"/><stop offset="0.19" stop-color="#cfcaca"/><stop offset="0.21" stop-color="#e9e7e7"/><stop offset="0.23" stop-color="#f9f9f9"/><stop offset="0.24" stop-color="#fff"/><stop offset="0.26" stop-color="#fbf8f8"/><stop offset="0.29" stop-color="#eee5e5"/><stop offset="0.33" stop-color="#dac5c5"/><stop offset="0.37" stop-color="#be9a9a"/><stop offset="0.37" stop-color="#b89090"/><stop offset="0.39" stop-color="#b68f8f"/><stop offset="0.4" stop-color="#af8989"/><stop offset="0.4" stop-color="#a48080"/><stop offset="0.41" stop-color="#937373"/><stop offset="0.41" stop-color="#7d6161"/><stop offset="0.41" stop-color="#614c4c"/><stop offset="0.42" stop-color="#413232"/><stop offset="0.42" stop-color="#1d1616"/><stop offset="0.42" stop-color="#050303"/><stop offset="0.61" stop-color="#070707"/><stop offset="0.62" stop-color="#070707"/><stop offset="0.63" stop-color="#180909"/><stop offset="0.67" stop-color="#430f0e"/><stop offset="0.69" stop-color="#541110"/><stop offset="0.69" stop-color="#531110"/><stop offset="0.71" stop-color="#411110"/><stop offset="0.73" stop-color="#351010"/><stop offset="0.75" stop-color="#2d1010"/><stop offset="0.8" stop-color="#2b1010"/><stop offset="0.83" stop-color="#2b1010"/><stop offset="0.99" stop-color="#2b1010"/></linearGradient><linearGradient id="linear-gradient-9" x1="75.65" y1="368.27" x2="334.87" y2="368.27" gradientTransform="translate(-359.57 307.31) rotate(-85.54)" gradientUnits="userSpaceOnUse"><stop offset="0.26" stop-color="#fff"/><stop offset="1" stop-color="#fff"/></linearGradient><linearGradient id="linear-gradient-10" x1="197.1" y1="378.48" x2="201.13" y2="378.48" gradientTransform="translate(-382.94 401.42) rotate(-85.54)" gradientUnits="userSpaceOnUse"><stop offset="0.27" stop-color="#989898"/><stop offset="0.34" stop-color="#b6b6b6"/><stop offset="0.41" stop-color="#cdcdcc"/><stop offset="0.48" stop-color="#dadad9"/><stop offset="0.54" stop-color="#dfdfde"/><stop offset="0.6" stop-color="#dbdbda"/><stop offset="0.65" stop-color="#cfcfce"/><stop offset="0.71" stop-color="#bababa"/><stop offset="0.76" stop-color="#9e9e9e"/><stop offset="0.77" stop-color="#989898"/></linearGradient></defs><g id="Layer_2" data-name="Layer 2"><g id="Layer_1-2" data-name="Layer 1"><g id="temperature"><path class="cls-1" d="M14.45,10.78.53,189.3c-.36,4.57,4.79,12.8,5.33,14.81.64,2.39-1.29,51.55-1.29,51.55-.22,2.82.66,5.18,3,5.37,2.82.22,3.68-2,3.9-4.83,0,0,5.75-50.39,6.76-52.65.84-1.9,7.08-7.72,7.43-12.29L39.61,12.74C40.09,6.55,34.84,1.1,27.9.56S14.94,4.59,14.45,10.78Z"/><path class="cls-2" d="M40.12,12.78,26.2,191.3c-.26,3.24-3.29,7.88-5.41,10a12.42,12.42,0,0,0-2.07,2.41C18,205.36,14,236,11.58,256.21c-.36,3.08-.93,5.57-4,5.33-2.65-.21-3.09-2.78-3-5.88.68-20.2,1.25-49.72.8-51.41a11.94,11.94,0,0,0-1.68-2.71c-1.76-2.46-3.91-9-3.66-12.28L13.94,10.74c.51-6.46,6.79-11.26,14-10.7S40.62,6.32,40.12,12.78ZM1,189.34c-.22,2.86,1.81,9.27,3.48,11.6a12,12,0,0,1,1.83,3c.64,2.41-.95,46.53-1,51.74,0,2.54.21,4.63,2.3,4.8,2.54.19,2.67-1.88,3.1-4.38.91-5.27,6-50.53,7.05-52.8a12,12,0,0,1,2.28-2.72c2-2,4.89-6.53,5.11-9.4L39.1,12.7c.46-5.89-4.58-11.12-11.24-11.63S15.42,4.92,15,10.82Z"/><rect class="cls-3" x="-64.74" y="86.19" width="172.23" height="21.17" transform="translate(-76.77 110.56) rotate(-85.54)"/><rect class="cls-4" x="-65.76" y="86.83" width="172.4" height="21.17" transform="translate(-78.27 110.22) rotate(-85.54)"/><path class="cls-5" d="M25.57,31.56c1,.08,1.83.75,1.77,1.49l-15.83,203c-.06.75-.95,1.29-2,1.21h0c-1-.08-1.83-.75-1.77-1.5l15.83-203c.06-.75.95-1.29,2-1.2Z"/><path class="cls-6" d="M25.15,12.83,11,194.76l3.74.29L28.89,13.12c.06-.74-.73-1.41-1.76-1.49S25.21,12.09,25.15,12.83Z"/><path class="cls-7" d="M13.2,235.43l-3,21.2C9.7,259.08,10,261,7.7,260.78s-1.79-2-1.82-4.49l.73-21.37c.22-2.79,1.77-2.67,3.3-2.55S13.41,232.64,13.2,235.43ZM6.59,256.35c0,2.65-.71,3.59,1.16,3.73s1.32-1.55,1.73-3.51l3-21.2c.14-1.76-.38-2.13-2.63-2.3s-2.41.14-2.54,1.9Z"/><path class="cls-8" d="M9.88,232.72c2.07.16,3.14.49,3,2.68l-3,21.2c-.4,2.19,0,4-2.11,3.83h0c-2.07-.16-1.66-1.92-1.48-4.11L7,234.94c.17-2.19.85-2.38,2.91-2.22Z"/><path class="cls-9" d="M6.78,256.65s1.81-49.49,1.41-51.88c-.34-2-3.83-10.14-3.47-14.74l14-179.69a12.34,12.34,0,0,1,4.68-9A11.24,11.24,0,0,0,16,10.9L2,189.42C1.68,194,6.41,202.19,6.9,204.19c.58,2.39-1,51.58-1,51.58-.1,1.31-.13,3.61.52,4.2C6,259,6.68,257.92,6.78,256.65Z"/><path class="cls-10" d="M35,11.61,21,191.3c-.35,4.6-4.91,10.57-5.55,12.5-.76,2.3-6.48,53-6.48,53-.1,1.27.25,2.46-.36,3.32,1.26-.84,1.39-2.34,1.52-4,0,0,5.74-50.4,6.68-52.67.78-1.9,6.57-7.75,6.93-12.32L37.67,12.59A11.23,11.23,0,0,0,31.84,2,12.4,12.4,0,0,1,35,11.61Z"/><path class="cls-11" d="M5.27,230.61q0,1.26-.06,2.55l9.14.71.33-2.53Z"/></g></g></g></svg>