<svg xmlns="http://www.w3.org/2000/svg" width="67.66" height="69.78" viewBox="0 0 67.66 69.78"><defs><style>.cls-1{isolation:isolate;}.cls-2{fill:#e4eef3;stroke:#bebebe;stroke-linecap:round;stroke-linejoin:round;stroke-width:1.14px;opacity:0.5;}.cls-3{fill:#3da1b2;}.cls-3,.cls-7{opacity:0.8;}.cls-4{fill:#c3ccd1;mix-blend-mode:multiply;opacity:0.4;}.cls-5{fill:#fff;opacity:0.7;}.cls-5,.cls-7{mix-blend-mode:overlay;}.cls-6{fill:none;}</style></defs><g class="cls-1"><g id="Layer_2" data-name="Layer 2"><g id="Desktop"><g id="page_02"><g id="Graphics"><path class="cls-2" d="M67.08,2.06C67.08.41,62.87.57,62.87.57H6.28S2.23.48,1.22,1.4a1.69,1.69,0,0,0,.11,2.75A7.69,7.69,0,0,1,5,10.59V60.17s-.58,9,7.41,9h46c8,0,7.4-9,7.4-9V10.59s.1-5.42,0-6.27a1.08,1.08,0,0,1,.75-1.1A1.31,1.31,0,0,0,67.08,2.06Z"/><path class="cls-3" d="M65,29.05H5.86V59.32s-.56,8.79,7.21,8.79H57.76c7.77,0,7.2-8.79,7.2-8.79Z"/><path class="cls-4" d="M67.08,2.06C67.08.41,62.87.57,62.87.57H6.28S2.23.48,1.22,1.4a1.69,1.69,0,0,0,.11,2.75A7.69,7.69,0,0,1,5,10.59V60.17s-.58,9,7.41,9h46c8,0,7.4-9,7.4-9V10.59s.1-5.42,0-6.27a1.08,1.08,0,0,1,.75-1.1A1.31,1.31,0,0,0,67.08,2.06Zm-9,.28c-.25,1-2.49,1.14-2.49,1.14L24.9,4.54H45.45l.27,56.15C44.89,64.93,40.09,65,40.09,65H13.83c-7.07,0-7.16-7.57-7.16-7.57V10.64C6.51,7.22,5.42,5.27,4.09,4.21S2.68,2.75,2.68,2.75C2,1.12,4.51,1.2,4.51,1.2H56C58.52,1.2,58.1,2.34,58.1,2.34Z"/><path class="cls-5" d="M14.58,2.67H8.92s-2.66.24-1.75,1.54c0,0,3,2.44,3.33,4.89V57s.58,6.16,5.91,6.16L20.07,63V9.26S19.32,3.64,14.58,2.67Z"/><path class="cls-6" d="M6.67,57.46S6.76,65,13.83,65H40.09s4.8-.1,5.63-4.34L45.45,4.54H24.9L55.61,3.48s2.24-.17,2.49-1.14c0,0,.42-1.14-2.08-1.14H4.51S2,1.12,2.68,2.75c0,0,.08.4,1.41,1.46s2.42,3,2.58,6.43Z"/><g class="cls-7"><path class="cls-5" d="M35.73,59.08a1.59,1.59,0,1,1-1.59-1.55A1.57,1.57,0,0,1,35.73,59.08Z"/><path class="cls-5" d="M34.2,55.64a.74.74,0,1,1-.74-.72A.73.73,0,0,1,34.2,55.64Z"/><path class="cls-5" d="M32.49,64.53a.74.74,0,1,1-.74-.72A.73.73,0,0,1,32.49,64.53Z"/><path class="cls-5" d="M36.52,63.86a1,1,0,1,1-1-1A1,1,0,0,1,36.52,63.86Z"/><path class="cls-5" d="M33.23,38.91a.74.74,0,0,1-1.48,0,.74.74,0,0,1,1.48,0Z"/><path class="cls-5" d="M36.64,46.3a1.48,1.48,0,1,1-1.48-1.44A1.46,1.46,0,0,1,36.64,46.3Z"/><path class="cls-5" d="M38.73,31.88a1.48,1.48,0,1,1-1.47-1.44A1.46,1.46,0,0,1,38.73,31.88Z"/><path class="cls-5" d="M27.75,37.7a.92.92,0,1,1-.92-.9A.91.91,0,0,1,27.75,37.7Z"/><path class="cls-5" d="M51.24,37.2a.93.93,0,0,1-1.85,0,.93.93,0,0,1,1.85,0Z"/><path class="cls-5" d="M42.14,62.55a.94.94,0,1,1-.94-.92A.93.93,0,0,1,42.14,62.55Z"/><path class="cls-5" d="M46.7,48.94a2.23,2.23,0,1,1-2.23-2.19A2.21,2.21,0,0,1,46.7,48.94Z"/><path class="cls-5" d="M28.56,57.61a1.83,1.83,0,1,1-1.83-1.79A1.81,1.81,0,0,1,28.56,57.61Z"/></g></g></g></g></g></g></svg>