<svg xmlns="http://www.w3.org/2000/svg" viewBox="0 0 144 229.63"><defs><style>.cls-1{fill:#d9a56b;}.cls-2{fill:#fff;}.cls-3{fill:#989899;}.cls-4{fill:#bcbcbc;}.cls-5{fill:#a5a5a5;}</style></defs><g id="Layer_2" data-name="Layer 2"><g id="Portrait"><g id="page-01"><rect class="cls-1" y="25.97" width="144" height="203.66" rx="9"/><rect class="cls-2" x="9" y="34.97" width="126" height="185.66"/><path class="cls-3" d="M110.3,45V24.72A7.3,7.3,0,0,0,103,17.45H89.33A4.37,4.37,0,0,1,85,13.09v-.15A13,13,0,0,0,72,0h0A13,13,0,0,0,59,12.94v.15a4.37,4.37,0,0,1-4.36,4.36H41a7.3,7.3,0,0,0-7.28,7.27V45ZM72,7.88A5.09,5.09,0,1,1,66.91,13,5.09,5.09,0,0,1,72,7.88Z"/><path class="cls-4" d="M72,5a8,8,0,1,0,8,8A8,8,0,0,0,72,5Zm0,13.09A5.09,5.09,0,1,1,77.09,13,5.09,5.09,0,0,1,72,18.06Z"/><rect class="cls-5" x="33.7" y="24.72" width="76.59" height="20.24"/><rect class="cls-4" x="33.7" y="39.33" width="76.59" height="5.63"/></g></g></g></svg>